<?xml version="1.0" encoding="UTF-8" standalone="no"?><svg xmlns="http://www.w3.org/2000/svg" xmlns:xlink="http://www.w3.org/1999/xlink" contentScriptType="application/ecmascript" contentStyleType="text/css" height="204px" preserveAspectRatio="none" style="width:649px;height:204px;" version="1.1" viewBox="0 0 649 204" width="649px" zoomAndPan="magnify"><defs/><g><text fill="#000000" font-family="sans-serif" font-size="14" lengthAdjust="spacing" textLength="54" x="24" y="45.9951">formFile</text><text fill="#000000" font-family="sans-serif" font-size="14" lengthAdjust="spacing" textLength="155" x="97" y="45.9951">様式ファイル名(pngなど)</text><line style="stroke:#A80036;stroke-width:1.0;" x1="92" x2="92" y1="31" y2="51.2969"/><line style="stroke:#A80036;stroke-width:1.0;" x1="10" x2="257" y1="51.2969" y2="51.2969"/><text fill="#000000" font-family="sans-serif" font-size="14" lengthAdjust="spacing" textLength="64" x="19" y="66.292">pageSize</text><text fill="#000000" font-family="sans-serif" font-size="14" lengthAdjust="spacing" textLength="78" x="97" y="66.292">ページサイズ</text><line style="stroke:#A80036;stroke-width:1.0;" x1="92" x2="92" y1="51.2969" y2="71.5938"/><line style="stroke:#A80036;stroke-width:1.0;" x1="10" x2="257" y1="71.5938" y2="71.5938"/><text fill="#000000" font-family="sans-serif" font-size="14" lengthAdjust="spacing" textLength="72" x="15" y="86.5889">landScape</text><text fill="#000000" font-family="sans-serif" font-size="14" lengthAdjust="spacing" textLength="65" x="97" y="86.5889">ページ方向</text><line style="stroke:#A80036;stroke-width:1.0;" x1="92" x2="92" y1="71.5938" y2="91.8906"/><line style="stroke:#A80036;stroke-width:1.0;" x1="10" x2="257" y1="91.8906" y2="91.8906"/><text fill="#000000" font-family="sans-serif" font-size="14" lengthAdjust="spacing" textLength="64" x="19" y="106.8857">areaArray</text><text fill="#000000" font-family="sans-serif" font-size="14" lengthAdjust="spacing" textLength="0" x="109" y="106.8857"/><line style="stroke:#A80036;stroke-width:1.0;" x1="92" x2="92" y1="91.8906" y2="112.1875"/><rect fill="none" height="81.1875" rx="5" ry="5" style="stroke:#A80036;stroke-width:1.5;" width="247" x="10" y="31"/><text fill="#000000" font-family="sans-serif" font-size="14" lengthAdjust="spacing" textLength="0" x="311" y="106.4951"/><rect fill="none" height="20.2969" rx="5" ry="5" style="stroke:#A80036;stroke-width:1.5;" width="22" x="294" y="91.5"/><text fill="#000000" font-family="sans-serif" font-size="14" lengthAdjust="spacing" textLength="39" x="381" y="24.9951">name</text><text fill="#000000" font-family="sans-serif" font-size="14" lengthAdjust="spacing" textLength="39" x="451" y="24.9951">領域名</text><line style="stroke:#A80036;stroke-width:1.0;" x1="446" x2="446" y1="10" y2="30.2969"/><line style="stroke:#A80036;stroke-width:1.0;" x1="355" x2="637" y1="30.2969" y2="30.2969"/><text fill="#000000" font-family="sans-serif" font-size="14" lengthAdjust="spacing" textLength="49" x="376" y="45.292">docFile</text><text fill="#000000" font-family="sans-serif" font-size="14" lengthAdjust="spacing" textLength="149" x="451" y="45.292">文書ファイル名(mdなど)</text><line style="stroke:#A80036;stroke-width:1.0;" x1="446" x2="446" y1="30.2969" y2="50.5938"/><line style="stroke:#A80036;stroke-width:1.0;" x1="355" x2="637" y1="50.5938" y2="50.5938"/><text fill="#000000" font-family="sans-serif" font-size="14" lengthAdjust="spacing" textLength="79" x="361" y="65.5889">varKeyword</text><text fill="#000000" font-family="sans-serif" font-size="14" lengthAdjust="spacing" textLength="181" x="451" y="65.5889">可変キーワード(文書番号など)</text><line style="stroke:#A80036;stroke-width:1.0;" x1="446" x2="446" y1="50.5938" y2="70.8906"/><line style="stroke:#A80036;stroke-width:1.0;" x1="355" x2="637" y1="70.8906" y2="70.8906"/><text fill="#000000" font-family="sans-serif" font-size="14" lengthAdjust="spacing" textLength="67" x="367" y="85.8857">fontName</text><text fill="#000000" font-family="sans-serif" font-size="14" lengthAdjust="spacing" textLength="65" x="451" y="85.8857">フォント名</text><line style="stroke:#A80036;stroke-width:1.0;" x1="446" x2="446" y1="70.8906" y2="91.1875"/><line style="stroke:#A80036;stroke-width:1.0;" x1="355" x2="637" y1="91.1875" y2="91.1875"/><text fill="#000000" font-family="sans-serif" font-size="14" lengthAdjust="spacing" textLength="56" x="372.5" y="106.1826">fontSize</text><text fill="#000000" font-family="sans-serif" font-size="14" lengthAdjust="spacing" textLength="91" x="451" y="106.1826">フォントサイズ</text><line style="stroke:#A80036;stroke-width:1.0;" x1="446" x2="446" y1="91.1875" y2="111.4844"/><line style="stroke:#A80036;stroke-width:1.0;" x1="355" x2="637" y1="111.4844" y2="111.4844"/><text fill="#000000" font-family="sans-serif" font-size="14" lengthAdjust="spacing" textLength="81" x="360" y="126.4795">margen-top</text><text fill="#000000" font-family="sans-serif" font-size="14" lengthAdjust="spacing" textLength="91" x="451" y="126.4795">上マージン(px)</text><line style="stroke:#A80036;stroke-width:1.0;" x1="446" x2="446" y1="111.4844" y2="131.7813"/><line style="stroke:#A80036;stroke-width:1.0;" x1="355" x2="637" y1="131.7813" y2="131.7813"/><text fill="#000000" font-family="sans-serif" font-size="14" lengthAdjust="spacing" textLength="73" x="364" y="146.7764">margin-left</text><text fill="#000000" font-family="sans-serif" font-size="14" lengthAdjust="spacing" textLength="91" x="451" y="146.7764">左マージン(px)</text><line style="stroke:#A80036;stroke-width:1.0;" x1="446" x2="446" y1="131.7813" y2="152.0781"/><line style="stroke:#A80036;stroke-width:1.0;" x1="355" x2="637" y1="152.0781" y2="152.0781"/><text fill="#000000" font-family="sans-serif" font-size="14" lengthAdjust="spacing" textLength="37" x="382" y="167.0732">width</text><text fill="#000000" font-family="sans-serif" font-size="14" lengthAdjust="spacing" textLength="39" x="451" y="167.0732">幅(px)</text><line style="stroke:#A80036;stroke-width:1.0;" x1="446" x2="446" y1="152.0781" y2="172.375"/><line style="stroke:#A80036;stroke-width:1.0;" x1="355" x2="637" y1="172.375" y2="172.375"/><text fill="#000000" font-family="sans-serif" font-size="14" lengthAdjust="spacing" textLength="44" x="378.5" y="187.3701">height</text><text fill="#000000" font-family="sans-serif" font-size="14" lengthAdjust="spacing" textLength="52" x="451" y="187.3701">高さ(px)</text><line style="stroke:#A80036;stroke-width:1.0;" x1="446" x2="446" y1="172.375" y2="192.6719"/><rect fill="none" height="182.6719" rx="5" ry="5" style="stroke:#A80036;stroke-width:1.5;" width="282" x="355" y="10"/><path d="M305.6103,101.5 L318.6103,101.5 C325.8971,101.5 336.0357,101.5 347.8075,101.5 " fill="none" style="stroke:#A80036;stroke-width:1.0;stroke-dasharray:3.0,3.0;"/><path d="M347.8075,104.5119 L350.0665,101.5 L347.8075,98.4881 L355.3373,101.5 L347.8075,104.5119 " fill="#A80036" style="stroke:#A80036;stroke-width:1.0;"/><ellipse cx="305.6103" cy="101.5" fill="#A80036" rx="3" ry="3" style="stroke:#A80036;stroke-width:1.0;"/><path d="M245,101.5 L258,101.5 C267.374,101.5 277.7885,101.5 286.4714,101.5 " fill="none" style="stroke:#A80036;stroke-width:1.0;stroke-dasharray:3.0,3.0;"/><path d="M286.4714,104.5815 L288.7825,101.5 L286.4714,98.4185 L294.1751,101.5 L286.4714,104.5815 " fill="#A80036" style="stroke:#A80036;stroke-width:1.0;"/><ellipse cx="245" cy="101.5" fill="#A80036" rx="3" ry="3" style="stroke:#A80036;stroke-width:1.0;"/><!--MD5=[2a6218ec2108922a1e67e8daa5df8445]
@startjson fig2
{
    "formFile":"様式ファイル名(pngなど)",
    "pageSize": "ページサイズ",
    "landScape" : "ページ方向",
    "areaArray" :
    [
        {
            "name": "領域名",
            "docFile": "文書ファイル名(mdなど)",
            "varKeyword": "可変キーワード(文書番号など)",
            "fontName": "フォント名",
            "fontSize": "フォントサイズ",
            "margen-top": "上マージン(px)", 
            "margin-left" : "左マージン(px)",
            "width" : "幅(px)",
            "height" : "高さ(px)"
        }
    ]
}
@endjson

PlantUML version 1.2021.00(Sun Jan 10 19:25:05 JST 2021)
(GPL source distribution)
Java Runtime: OpenJDK Runtime Environment
JVM: OpenJDK 64-Bit Server VM
Default Encoding: UTF-8
Language: en
Country: US
--></g></svg>